<?xml version="1.0" encoding="UTF-8"?>
<!DOCTYPE svg PUBLIC "-//W3C//DTD SVG 1.1//EN" "http://www.w3.org/Graphics/SVG/1.1/DTD/svg11.dtd">
<svg xmlns="http://www.w3.org/2000/svg" version="1.1" width="172px" height="163px" style="shape-rendering:geometricPrecision; text-rendering:geometricPrecision; image-rendering:optimizeQuality; fill-rule:evenodd; clip-rule:evenodd" xmlns:xlink="http://www.w3.org/1999/xlink">
<g><path style="opacity:0.872" fill="#86c3d3" d="M 73.5,23.5 C 73.5,27.5 73.5,31.5 73.5,35.5C 73.1667,35.5 72.8333,35.5 72.5,35.5C 72.756,31.7307 72.4227,28.0641 71.5,24.5C 72.1667,24.1667 72.8333,23.8333 73.5,23.5 Z"/></g>
<g><path style="opacity:0.886" fill="#80c3d5" d="M 73.5,23.5 C 74.1667,23.5 74.8333,23.5 75.5,23.5C 75.5,27.5 75.5,31.5 75.5,35.5C 74.8333,35.5 74.1667,35.5 73.5,35.5C 73.5,31.5 73.5,27.5 73.5,23.5 Z"/></g>
<g><path style="opacity:0.853" fill="#7ac3d7" d="M 75.5,23.5 C 76.1667,23.5 76.8333,23.5 77.5,23.5C 77.5,27.1667 77.5,30.8333 77.5,34.5C 77.1583,35.3382 76.4916,35.6716 75.5,35.5C 75.5,31.5 75.5,27.5 75.5,23.5 Z"/></g>
<g><path style="opacity:0.921" fill="#73c3d9" d="M 77.5,23.5 C 78.1667,23.5 78.8333,23.5 79.5,23.5C 79.5,27.1667 79.5,30.8333 79.5,34.5C 78.8333,34.5 78.1667,34.5 77.5,34.5C 77.5,30.8333 77.5,27.1667 77.5,23.5 Z"/></g>
<g><path style="opacity:0.912" fill="#6dc2db" d="M 79.5,23.5 C 80.1667,23.5 80.8333,23.5 81.5,23.5C 81.9422,27.1545 82.2756,30.8212 82.5,34.5C 81.5,34.5 80.5,34.5 79.5,34.5C 79.5,30.8333 79.5,27.1667 79.5,23.5 Z"/></g>
<g><path style="opacity:0.93" fill="#69c1dd" d="M 81.5,23.5 C 82.1667,23.5 82.8333,23.5 83.5,23.5C 83.5,27.1667 83.5,30.8333 83.5,34.5C 83.1667,34.5 82.8333,34.5 82.5,34.5C 82.2756,30.8212 81.9422,27.1545 81.5,23.5 Z"/></g>
<g><path style="opacity:0.922" fill="#66c0df" d="M 83.5,23.5 C 85.1667,23.5 86.8333,23.5 88.5,23.5C 88.5,27.1667 88.5,30.8333 88.5,34.5C 86.8333,34.5 85.1667,34.5 83.5,34.5C 83.5,30.8333 83.5,27.1667 83.5,23.5 Z"/></g>
<g><path style="opacity:0.902" fill="#68bde1" d="M 88.5,23.5 C 89.1667,23.5 89.8333,23.5 90.5,23.5C 91.4299,27.3998 91.7633,31.3998 91.5,35.5C 90.391,35.4431 89.391,35.1098 88.5,34.5C 88.5,30.8333 88.5,27.1667 88.5,23.5 Z"/></g>
<g><path style="opacity:0.879" fill="#6ebbe1" d="M 90.5,23.5 C 91.791,23.2627 92.791,23.596 93.5,24.5C 93.5,28.1667 93.5,31.8333 93.5,35.5C 92.8333,35.5 92.1667,35.5 91.5,35.5C 91.7633,31.3998 91.4299,27.3998 90.5,23.5 Z"/></g>
<g><path style="opacity:0.921" fill="#8cc3d1" d="M 70.5,24.5 C 70.8333,24.5 71.1667,24.5 71.5,24.5C 72.4227,28.0641 72.756,31.7307 72.5,35.5C 71.8333,35.8333 71.1667,36.1667 70.5,36.5C 70.5,32.5 70.5,28.5 70.5,24.5 Z"/></g>
<g><path style="opacity:0.938" fill="#74b9e0" d="M 93.5,24.5 C 93.8333,24.5 94.1667,24.5 94.5,24.5C 95.3597,28.4338 95.693,32.4338 95.5,36.5C 94.8333,36.1667 94.1667,35.8333 93.5,35.5C 93.5,31.8333 93.5,28.1667 93.5,24.5 Z"/></g>
<g><path style="opacity:0.84" fill="#79b7df" d="M 94.5,24.5 C 95.4916,24.3284 96.1583,24.6618 96.5,25.5C 96.244,29.2693 96.5773,32.9359 97.5,36.5C 96.8333,36.5 96.1667,36.5 95.5,36.5C 95.693,32.4338 95.3597,28.4338 94.5,24.5 Z"/></g>
<g><path style="opacity:0.881" fill="#9fc4ca" d="M 66.5,25.5 C 66.5045,29.5341 66.8379,33.5341 67.5,37.5C 66.8333,37.5 66.1667,37.5 65.5,37.5C 65.5,33.8333 65.5,30.1667 65.5,26.5C 65.5,25.8333 65.8333,25.5 66.5,25.5 Z"/></g>
<g><path style="opacity:0.892" fill="#99c3cc" d="M 66.5,25.5 C 67.1667,25.5 67.8333,25.5 68.5,25.5C 68.423,29.2148 68.7564,32.8815 69.5,36.5C 68.8333,36.8333 68.1667,37.1667 67.5,37.5C 66.8379,33.5341 66.5045,29.5341 66.5,25.5 Z"/></g>
<g><path style="opacity:0.991" fill="#93c4ce" d="M 70.5,24.5 C 70.5,28.5 70.5,32.5 70.5,36.5C 70.1667,36.5 69.8333,36.5 69.5,36.5C 68.7564,32.8815 68.423,29.2148 68.5,25.5C 69.1667,25.1667 69.8333,24.8333 70.5,24.5 Z"/></g>
<g><path style="opacity:0.896" fill="#7fb5de" d="M 96.5,25.5 C 97.1667,25.5 97.8333,25.5 98.5,25.5C 98.5,29.5 98.5,33.5 98.5,37.5C 97.8333,37.5 97.5,37.1667 97.5,36.5C 96.5773,32.9359 96.244,29.2693 96.5,25.5 Z"/></g>
<g><path style="opacity:0.905" fill="#86b3de" d="M 98.5,25.5 C 99.1667,25.5 99.8333,25.5 100.5,25.5C 100.5,29.5 100.5,33.5 100.5,37.5C 99.8333,37.5 99.1667,37.5 98.5,37.5C 98.5,33.5 98.5,29.5 98.5,25.5 Z"/></g>
<g><path style="opacity:0.885" fill="#8cb0dd" d="M 100.5,25.5 C 101.167,25.8333 101.833,26.1667 102.5,26.5C 102.5,30.5 102.5,34.5 102.5,38.5C 101.508,38.6716 100.842,38.3382 100.5,37.5C 100.5,33.5 100.5,29.5 100.5,25.5 Z"/></g>
<g><path style="opacity:0.92" fill="#a4c3c8" d="M 63.5,26.5 C 64.1667,26.5 64.8333,26.5 65.5,26.5C 65.5,30.1667 65.5,33.8333 65.5,37.5C 65.1583,38.3382 64.4916,38.6716 63.5,38.5C 63.5,34.5 63.5,30.5 63.5,26.5 Z"/></g>
<g><path style="opacity:0.922" fill="#93addd" d="M 102.5,26.5 C 103.167,26.5 103.5,26.8333 103.5,27.5C 104.162,31.4659 104.495,35.4659 104.5,39.5C 103.508,39.6716 102.842,39.3382 102.5,38.5C 102.5,34.5 102.5,30.5 102.5,26.5 Z"/></g>
<g><path style="opacity:0.925" fill="#b2c1c2" d="M 61.5,27.5 C 61.5,31.5 61.5,35.5 61.5,39.5C 60.7095,40.4013 59.7095,41.0679 58.5,41.5C 58.5,37.1667 58.5,32.8333 58.5,28.5C 59.391,27.8902 60.391,27.5569 61.5,27.5 Z"/></g>
<g><path style="opacity:0.916" fill="#abc2c5" d="M 63.5,26.5 C 63.5,30.5 63.5,34.5 63.5,38.5C 63.1583,39.3382 62.4916,39.6716 61.5,39.5C 61.5,35.5 61.5,31.5 61.5,27.5C 62.1667,27.1667 62.8333,26.8333 63.5,26.5 Z"/></g>
<g><path style="opacity:0.892" fill="#99abdc" d="M 103.5,27.5 C 104.791,27.2627 105.791,27.596 106.5,28.5C 106.5,32.5 106.5,36.5 106.5,40.5C 105.508,40.6716 104.842,40.3382 104.5,39.5C 104.495,35.4659 104.162,31.4659 103.5,27.5 Z"/></g>
<g><path style="opacity:0.888" fill="#b8c0bf" d="M 58.5,28.5 C 58.5,32.8333 58.5,37.1667 58.5,41.5C 57.8333,41.8333 57.1667,42.1667 56.5,42.5C 55.7279,38.5483 55.3946,34.5483 55.5,30.5C 56.2905,29.5987 57.2905,28.9321 58.5,28.5 Z"/></g>
<g><path style="opacity:0.9" fill="#9fa8db" d="M 106.5,28.5 C 107.492,28.3284 108.158,28.6618 108.5,29.5C 108.5,33.5 108.5,37.5 108.5,41.5C 107.508,41.6716 106.842,41.3382 106.5,40.5C 106.5,36.5 106.5,32.5 106.5,28.5 Z"/></g>
<g><path style="opacity:0.909" fill="#a5a6db" d="M 108.5,29.5 C 109.609,29.5569 110.609,29.8902 111.5,30.5C 111.5,34.8333 111.5,39.1667 111.5,43.5C 109.973,43.573 108.973,42.9063 108.5,41.5C 108.5,37.5 108.5,33.5 108.5,29.5 Z"/></g>
<g><path style="opacity:0.89" fill="#bebebc" d="M 55.5,30.5 C 55.3946,34.5483 55.7279,38.5483 56.5,42.5C 56.0269,43.9063 55.0269,44.573 53.5,44.5C 53.6054,40.4517 53.2721,36.4517 52.5,32.5C 53.2905,31.5987 54.2905,30.9321 55.5,30.5 Z"/></g>
<g><path style="opacity:0.898" fill="#aaa3da" d="M 111.5,30.5 C 112.5,31.1667 113.5,31.8333 114.5,32.5C 114.413,37.5365 114.746,42.5365 115.5,47.5C 113.833,46.5 112.5,45.1667 111.5,43.5C 111.5,39.1667 111.5,34.8333 111.5,30.5 Z"/></g>
<g><path style="opacity:0.917" fill="#c4bcb9" d="M 52.5,32.5 C 53.2721,36.4517 53.6054,40.4517 53.5,44.5C 52.8333,45.8333 51.8333,46.8333 50.5,47.5C 50.5,42.8333 50.5,38.1667 50.5,33.5C 50.8417,32.6618 51.5084,32.3284 52.5,32.5 Z"/></g>
<g><path style="opacity:0.907" fill="#ada2db" d="M 114.5,32.5 C 116.389,33.604 118.055,34.9373 119.5,36.5C 119.5,41.5 119.5,46.5 119.5,51.5C 117.833,50.5 116.5,49.1667 115.5,47.5C 114.746,42.5365 114.413,37.5365 114.5,32.5 Z"/></g>
<g><path style="opacity:0.88" fill="#c9bab6" d="M 50.5,33.5 C 50.5,38.1667 50.5,42.8333 50.5,47.5C 50.1667,48.5 49.5,49.1667 48.5,49.5C 48.7059,45.1018 48.3726,40.7685 47.5,36.5C 48.1667,35.1667 49.1667,34.1667 50.5,33.5 Z"/></g>
<g><path style="opacity:0.886" fill="#d0b6b2" d="M 46.5,36.5 C 47.2295,41.1304 47.5628,45.7971 47.5,50.5C 47.2624,52.4044 46.2624,53.7377 44.5,54.5C 44.5,49.1667 44.5,43.8333 44.5,38.5C 44.8333,37.5 45.5,36.8333 46.5,36.5 Z"/></g>
<g><path style="opacity:0.926" fill="#cdb8b5" d="M 46.5,36.5 C 46.8333,36.5 47.1667,36.5 47.5,36.5C 48.3726,40.7685 48.7059,45.1018 48.5,49.5C 48.5,50.1667 48.1667,50.5 47.5,50.5C 47.5628,45.7971 47.2295,41.1304 46.5,36.5 Z"/></g>
<g><path style="opacity:0.883" fill="#ada3db" d="M 119.5,36.5 C 120.5,36.8333 121.167,37.5 121.5,38.5C 121.375,44.2031 121.708,49.8698 122.5,55.5C 120.738,54.7377 119.738,53.4044 119.5,51.5C 119.5,46.5 119.5,41.5 119.5,36.5 Z"/></g>
<g><path style="opacity:0.928" fill="#aaa6da" d="M 121.5,38.5 C 123.5,39.8333 125.167,41.5 126.5,43.5C 126.5,50.1667 126.5,56.8333 126.5,63.5C 124.805,61.1033 123.472,58.4366 122.5,55.5C 121.708,49.8698 121.375,44.2031 121.5,38.5 Z"/></g>
<g><path style="opacity:0.884" fill="#d6b3af" d="M 44.5,38.5 C 44.5,43.8333 44.5,49.1667 44.5,54.5C 43.7368,56.3684 42.7368,58.0351 41.5,59.5C 41.5,53.5 41.5,47.5 41.5,41.5C 42.1667,40.1667 43.1667,39.1667 44.5,38.5 Z"/></g>
<g><path style="opacity:0.834" fill="#dbafad" d="M 41.5,41.5 C 41.5,47.5 41.5,53.5 41.5,59.5C 41.1667,60.8333 40.8333,62.1667 40.5,63.5C 39.6488,57.6603 38.9821,51.6603 38.5,45.5C 38.7376,43.5956 39.7376,42.2623 41.5,41.5 Z"/></g>
<g><path style="opacity:0.909" fill="#a5aada" d="M 126.5,43.5 C 127.974,44.4363 128.974,45.7697 129.5,47.5C 130.006,63.5121 130.673,79.5121 131.5,95.5C 130.292,96.2341 128.959,96.5674 127.5,96.5C 127.5,92.5 127.5,88.5 127.5,84.5C 128.939,83.0115 129.605,81.1782 129.5,79C 128.874,73.7405 127.874,68.5738 126.5,63.5C 126.5,56.8333 126.5,50.1667 126.5,43.5 Z"/></g>
<g><path style="opacity:0.886" fill="#7fc3d5" d="M 76.5,44.5 C 76.5,48.5 76.5,52.5 76.5,56.5C 75.8333,56.5 75.1667,56.5 74.5,56.5C 74.5,52.8333 74.5,49.1667 74.5,45.5C 74.8417,44.6618 75.5084,44.3284 76.5,44.5 Z"/></g>
<g><path style="opacity:0.871" fill="#79c3d7" d="M 76.5,44.5 C 77.1667,44.5 77.8333,44.5 78.5,44.5C 78.5,48.1667 78.5,51.8333 78.5,55.5C 78.1583,56.3382 77.4916,56.6716 76.5,56.5C 76.5,52.5 76.5,48.5 76.5,44.5 Z"/></g>
<g><path style="opacity:0.907" fill="#72c3d9" d="M 78.5,44.5 C 79.1667,44.5 79.8333,44.5 80.5,44.5C 80.5,48.1667 80.5,51.8333 80.5,55.5C 79.8333,55.5 79.1667,55.5 78.5,55.5C 78.5,51.8333 78.5,48.1667 78.5,44.5 Z"/></g>
<g><path style="opacity:0.918" fill="#6dc2db" d="M 80.5,44.5 C 81.1667,44.5 81.8333,44.5 82.5,44.5C 82.5,48.1667 82.5,51.8333 82.5,55.5C 81.8333,55.5 81.1667,55.5 80.5,55.5C 80.5,51.8333 80.5,48.1667 80.5,44.5 Z"/></g>
<g><path style="opacity:0.92" fill="#69c1dd" d="M 82.5,44.5 C 83.1667,44.5 83.8333,44.5 84.5,44.5C 84.5,48.1667 84.5,51.8333 84.5,55.5C 83.8333,55.5 83.1667,55.5 82.5,55.5C 82.5,51.8333 82.5,48.1667 82.5,44.5 Z"/></g>
<g><path style="opacity:0.897" fill="#65c0df" d="M 84.5,44.5 C 85.8333,44.5 87.1667,44.5 88.5,44.5C 88.5045,48.5341 88.8379,52.5341 89.5,56.5C 87.8828,55.962 86.2161,55.6287 84.5,55.5C 84.5,51.8333 84.5,48.1667 84.5,44.5 Z"/></g>
<g><path style="opacity:0.879" fill="#67bee1" d="M 88.5,44.5 C 89.791,44.2627 90.791,44.596 91.5,45.5C 91.5045,49.5341 91.8379,53.5341 92.5,57.5C 91.609,56.8902 90.609,56.5569 89.5,56.5C 88.8379,52.5341 88.5045,48.5341 88.5,44.5 Z"/></g>
<g><path style="opacity:0.828" fill="#deadab" d="M 38.5,45.5 C 38.9821,51.6603 39.6488,57.6603 40.5,63.5C 39.2479,66.1631 38.2479,68.8298 37.5,71.5C 37.333,63.6432 36.6664,55.9765 35.5,48.5C 36.1667,47.1667 37.1667,46.1667 38.5,45.5 Z"/></g>
<g><path style="opacity:0.828" fill="#8cc3d1" d="M 72.5,45.5 C 72.3946,49.5483 72.7279,53.5483 73.5,57.5C 72.8333,57.8333 72.1667,58.1667 71.5,58.5C 71.5,54.5 71.5,50.5 71.5,46.5C 71.5,45.8333 71.8333,45.5 72.5,45.5 Z"/></g>
<g><path style="opacity:0.914" fill="#86c3d3" d="M 72.5,45.5 C 73.1667,45.5 73.8333,45.5 74.5,45.5C 74.5,49.1667 74.5,52.8333 74.5,56.5C 74.5,57.1667 74.1667,57.5 73.5,57.5C 72.7279,53.5483 72.3946,49.5483 72.5,45.5 Z"/></g>
<g><path style="opacity:0.954" fill="#6cbce1" d="M 91.5,45.5 C 91.8333,45.5 92.1667,45.5 92.5,45.5C 93.4299,49.3998 93.7633,53.3998 93.5,57.5C 93.1667,57.5 92.8333,57.5 92.5,57.5C 91.8379,53.5341 91.5045,49.5341 91.5,45.5 Z"/></g>
<g><path style="opacity:0.859" fill="#72b9e0" d="M 92.5,45.5 C 93.791,45.2627 94.791,45.596 95.5,46.5C 95.307,50.5662 95.6403,54.5662 96.5,58.5C 95.391,58.4431 94.391,58.1098 93.5,57.5C 93.7633,53.3998 93.4299,49.3998 92.5,45.5 Z"/></g>
<g><path style="opacity:0.896" fill="#99c4cc" d="M 69.5,46.5 C 69.5,50.8333 69.5,55.1667 69.5,59.5C 68.8333,59.8333 68.1667,60.1667 67.5,60.5C 67.5,56.1667 67.5,51.8333 67.5,47.5C 68.1667,47.1667 68.8333,46.8333 69.5,46.5 Z"/></g>
<g><path style="opacity:0.929" fill="#92c3cf" d="M 69.5,46.5 C 70.1667,46.5 70.8333,46.5 71.5,46.5C 71.5,50.5 71.5,54.5 71.5,58.5C 70.8333,58.8333 70.1667,59.1667 69.5,59.5C 69.5,55.1667 69.5,50.8333 69.5,46.5 Z"/></g>
<g><path style="opacity:0.92" fill="#79b7e0" d="M 95.5,46.5 C 96.4916,46.3284 97.1583,46.6618 97.5,47.5C 97.5,51.5 97.5,55.5 97.5,59.5C 96.8333,59.5 96.5,59.1667 96.5,58.5C 95.6403,54.5662 95.307,50.5662 95.5,46.5 Z"/></g>
<g><path style="opacity:0.888" fill="#a0c3c9" d="M 67.5,47.5 C 67.5,51.8333 67.5,56.1667 67.5,60.5C 67.5,61.1667 67.1667,61.5 66.5,61.5C 65.9198,57.19 65.5865,52.8566 65.5,48.5C 66.1667,48.1667 66.8333,47.8333 67.5,47.5 Z"/></g>
<g><path style="opacity:0.92" fill="#80b5df" d="M 97.5,47.5 C 98.1667,47.5 98.8333,47.5 99.5,47.5C 99.5,51.8333 99.5,56.1667 99.5,60.5C 98.5084,60.6716 97.8417,60.3382 97.5,59.5C 97.5,55.5 97.5,51.5 97.5,47.5 Z"/></g>
<g><path style="opacity:0.9" fill="#86b2de" d="M 99.5,47.5 C 100.5,47.8333 101.167,48.5 101.5,49.5C 101.5,53.8333 101.5,58.1667 101.5,62.5C 100.5,62.1667 99.8333,61.5 99.5,60.5C 99.5,56.1667 99.5,51.8333 99.5,47.5 Z"/></g>
<g><path style="opacity:0.97" fill="#a1adda" d="M 129.5,47.5 C 130.167,47.5 130.5,47.8333 130.5,48.5C 131.211,63.8294 131.878,79.1627 132.5,94.5C 132.5,95.1667 132.167,95.5 131.5,95.5C 130.673,79.5121 130.006,63.5121 129.5,47.5 Z"/></g>
<g><path style="opacity:0.892" fill="#e1aaa9" d="M 35.5,48.5 C 36.6664,55.9765 37.333,63.6432 37.5,71.5C 37.4408,74.6905 37.1074,77.8571 36.5,81C 37.3632,85.4804 38.0299,89.9804 38.5,94.5C 38.5,101.833 38.5,109.167 38.5,116.5C 37.5987,115.71 36.9321,114.71 36.5,113.5C 35.7668,92.5025 35.1001,71.5025 34.5,50.5C 34.8333,49.8333 35.1667,49.1667 35.5,48.5 Z"/></g>
<g><path style="opacity:0.87" fill="#a5c3c8" d="M 65.5,48.5 C 65.5865,52.8566 65.9198,57.19 66.5,61.5C 66.1583,62.3382 65.4916,62.6716 64.5,62.5C 64.7059,58.1018 64.3726,53.7685 63.5,49.5C 64.1667,49.1667 64.8333,48.8333 65.5,48.5 Z"/></g>
<g><path style="opacity:0.962" fill="#9eafda" d="M 130.5,48.5 C 131.674,49.5137 132.34,50.847 132.5,52.5C 133.052,65.8539 133.719,79.1872 134.5,92.5C 134.167,93.5 133.5,94.1667 132.5,94.5C 131.878,79.1627 131.211,63.8294 130.5,48.5 Z"/></g>
<g><path style="opacity:0.851" fill="#abc2c5" d="M 63.5,49.5 C 64.3726,53.7685 64.7059,58.1018 64.5,62.5C 64.573,64.0269 63.9063,65.0269 62.5,65.5C 62.7744,60.737 62.441,56.0704 61.5,51.5C 61.8333,50.5 62.5,49.8333 63.5,49.5 Z"/></g>
<g><path style="opacity:0.907" fill="#8db0dd" d="M 101.5,49.5 C 102.492,49.3284 103.158,49.6618 103.5,50.5C 103.5,55.5 103.5,60.5 103.5,65.5C 102.599,64.7095 101.932,63.7095 101.5,62.5C 101.5,58.1667 101.5,53.8333 101.5,49.5 Z"/></g>
<g><path style="opacity:0.859" fill="#93addd" d="M 103.5,50.5 C 104.167,50.5 104.5,50.8333 104.5,51.5C 104.635,57.181 104.968,62.8477 105.5,68.5C 104.599,67.7095 103.932,66.7095 103.5,65.5C 103.5,60.5 103.5,55.5 103.5,50.5 Z"/></g>
<g><path style="opacity:0.949" fill="#e4a8a7" d="M 34.5,50.5 C 35.1001,71.5025 35.7668,92.5025 36.5,113.5C 35.6618,113.158 35.3284,112.492 35.5,111.5C 34.678,91.8402 34.0113,72.1735 33.5,52.5C 33.3284,51.5084 33.6618,50.8417 34.5,50.5 Z"/></g>
<g><path style="opacity:0.945" fill="#b2c2c2" d="M 61.5,51.5 C 62.441,56.0704 62.7744,60.737 62.5,65.5C 61.7368,67.3684 60.7368,69.0351 59.5,70.5C 59.5,64.8333 59.5,59.1667 59.5,53.5C 59.8333,52.5 60.5,51.8333 61.5,51.5 Z"/></g>
<g><path style="opacity:0.898" fill="#99abdc" d="M 104.5,51.5 C 106.027,51.427 107.027,52.0937 107.5,53.5C 107.5,59.8333 107.5,66.1667 107.5,72.5C 106.655,71.3285 105.989,69.9952 105.5,68.5C 104.968,62.8477 104.635,57.181 104.5,51.5 Z"/></g>
<g><path style="opacity:0.916" fill="#e6a7a6" d="M 33.5,52.5 C 34.0113,72.1735 34.678,91.8402 35.5,111.5C 33.7497,110.341 32.7497,108.674 32.5,106.5C 32.2103,90.6309 31.2103,74.9642 29.5,59.5C 30.5957,56.9684 31.9291,54.6351 33.5,52.5 Z"/></g>
<g><path style="opacity:0.954" fill="#99b3d9" d="M 132.5,52.5 C 134.873,54.5792 136.206,57.2459 136.5,60.5C 136.173,70.3478 136.506,80.0144 137.5,89.5C 137.144,91.1898 136.144,92.1898 134.5,92.5C 133.719,79.1872 133.052,65.8539 132.5,52.5 Z"/></g>
<g><path style="opacity:0.89" fill="#b8c0bf" d="M 59.5,53.5 C 59.5,59.1667 59.5,64.8333 59.5,70.5C 59.0733,73.0098 58.4067,75.3432 57.5,77.5C 56.9625,70.1781 56.6291,62.8447 56.5,55.5C 57.2223,54.4489 58.2223,53.7822 59.5,53.5 Z"/></g>
<g><path style="opacity:0.925" fill="#a0a8dc" d="M 107.5,53.5 C 108.5,53.8333 109.167,54.5 109.5,55.5C 109.567,66.1769 109.901,76.8436 110.5,87.5C 108.912,82.7404 107.912,77.7404 107.5,72.5C 107.5,66.1667 107.5,59.8333 107.5,53.5 Z"/></g>
<g><path style="opacity:0.958" fill="#bebebc" d="M 56.5,55.5 C 56.6291,62.8447 56.9625,70.1781 57.5,77.5C 57.5,79.5 57.5,81.5 57.5,83.5C 57.5676,91.5136 57.901,99.5136 58.5,107.5C 56.8333,106.5 55.5,105.167 54.5,103.5C 55.1582,102.207 55.4915,100.707 55.5,99C 54.7988,85.8299 54.1321,72.6633 53.5,59.5C 54.5116,58.1283 55.5116,56.795 56.5,55.5 Z"/></g>
<g><path style="opacity:0.941" fill="#a5a5db" d="M 109.5,55.5 C 110.974,56.4363 111.974,57.7697 112.5,59.5C 112.501,70.5126 112.834,81.5126 113.5,92.5C 112.11,91.1007 111.11,89.4341 110.5,87.5C 109.901,76.8436 109.567,66.1769 109.5,55.5 Z"/></g>
<g><path style="opacity:0.812" fill="#e8a5a5" d="M 29.5,59.5 C 31.2103,74.9642 32.2103,90.6309 32.5,106.5C 24.4918,91.3814 23.4918,75.7147 29.5,59.5 Z"/></g>
<g><path style="opacity:0.956" fill="#c4bcb9" d="M 53.5,59.5 C 54.1321,72.6633 54.7988,85.8299 55.5,99C 55.4915,100.707 55.1582,102.207 54.5,103.5C 53.8333,102.5 53.1667,101.5 52.5,100.5C 52.3251,88.1614 51.9918,75.8281 51.5,63.5C 51.6596,61.847 52.3263,60.5137 53.5,59.5 Z"/></g>
<g><path style="opacity:0.964" fill="#aba3db" d="M 112.5,59.5 C 113.89,60.8993 114.89,62.5659 115.5,64.5C 116.257,74.4815 116.59,84.4815 116.5,94.5C 115.5,93.8333 114.5,93.1667 113.5,92.5C 112.834,81.5126 112.501,70.5126 112.5,59.5 Z"/></g>
<g><path style="opacity:0.905" fill="#92b7d9" d="M 136.5,60.5 C 140.024,68.3827 141.191,76.716 140,85.5C 139.392,87.0664 138.558,88.3998 137.5,89.5C 136.506,80.0144 136.173,70.3478 136.5,60.5 Z"/></g>
<g><path style="opacity:0.918" fill="#c9bab6" d="M 51.5,63.5 C 51.9918,75.8281 52.3251,88.1614 52.5,100.5C 50.7073,98.5739 49.7073,96.2406 49.5,93.5C 49.5,84.8333 49.5,76.1667 49.5,67.5C 49.6596,65.847 50.3263,64.5137 51.5,63.5 Z"/></g>
<g><path style="opacity:0.87" fill="#ada2db" d="M 115.5,64.5 C 117.129,66.8577 118.295,69.5243 119,72.5C 119.24,76.2519 119.74,79.9186 120.5,83.5C 120.586,87.8566 120.92,92.19 121.5,96.5C 119.447,96.5979 117.78,95.9313 116.5,94.5C 116.59,84.4815 116.257,74.4815 115.5,64.5 Z"/></g>
<g><path style="opacity:0.842" fill="#cdb8b4" d="M 49.5,67.5 C 49.5,76.1667 49.5,84.8333 49.5,93.5C 48.596,92.791 48.2627,91.791 48.5,90.5C 48.8235,83.9779 48.4902,77.6446 47.5,71.5C 47.9887,70.0048 48.6554,68.6715 49.5,67.5 Z"/></g>
<g><path style="opacity:0.615" fill="#cfb7b3" d="M 47.5,71.5 C 48.4902,77.6446 48.8235,83.9779 48.5,90.5C 46.262,84.3964 45.9286,78.0631 47.5,71.5 Z"/></g>
<g><path style="opacity:0.855" fill="#b8c0bf" d="M 57.5,83.5 C 58.49,86.7387 59.49,90.072 60.5,93.5C 60.6865,98.8446 61.0199,104.178 61.5,109.5C 59.9731,109.573 58.9731,108.906 58.5,107.5C 57.901,99.5136 57.5676,91.5136 57.5,83.5 Z"/></g>
<g><path style="opacity:0.925" fill="#ada3db" d="M 120.5,83.5 C 121.5,84.1667 122.5,84.8333 123.5,85.5C 123.5,89.1667 123.5,92.8333 123.5,96.5C 122.833,96.5 122.167,96.5 121.5,96.5C 120.92,92.19 120.586,87.8566 120.5,83.5 Z"/></g>
<g><path style="opacity:0.941" fill="#aaa6da" d="M 127.5,84.5 C 127.5,88.5 127.5,92.5 127.5,96.5C 126.167,96.5 124.833,96.5 123.5,96.5C 123.5,92.8333 123.5,89.1667 123.5,85.5C 124.959,85.5674 126.292,85.2341 127.5,84.5 Z"/></g>
<g><path style="opacity:0.884" fill="#deadab" d="M 38.5,94.5 C 39.9313,95.7804 40.5979,97.4471 40.5,99.5C 40.9538,106.159 41.2871,112.826 41.5,119.5C 40.1667,118.833 39.1667,117.833 38.5,116.5C 38.5,109.167 38.5,101.833 38.5,94.5 Z"/></g>
<g><path style="opacity:0.907" fill="#b2c1c2" d="M 60.5,93.5 C 61.9744,94.4363 62.9744,95.7697 63.5,97.5C 63.5,102.167 63.5,106.833 63.5,111.5C 62.5,111.167 61.8333,110.5 61.5,109.5C 61.0199,104.178 60.6865,98.8446 60.5,93.5 Z"/></g>
<g><path style="opacity:0.946" fill="#9da9dc" d="M 109.5,96.5 C 109.938,110.873 110.604,125.206 111.5,139.5C 110.833,139.167 110.167,138.833 109.5,138.5C 109.487,124.824 109.154,111.157 108.5,97.5C 108.5,96.8333 108.833,96.5 109.5,96.5 Z"/></g>
<g><path style="opacity:0.976" fill="#a0a7dc" d="M 109.5,96.5 C 109.833,96.5 110.167,96.5 110.5,96.5C 111.1,110.842 111.767,125.175 112.5,139.5C 112.167,139.5 111.833,139.5 111.5,139.5C 110.604,125.206 109.938,110.873 109.5,96.5 Z"/></g>
<g><path style="opacity:0.954" fill="#a5a5db" d="M 110.5,96.5 C 111.5,96.5 112.5,96.5 113.5,96.5C 113.88,111.572 114.546,126.572 115.5,141.5C 113.973,141.573 112.973,140.906 112.5,139.5C 111.767,125.175 111.1,110.842 110.5,96.5 Z"/></g>
<g><path style="opacity:0.966" fill="#aba3da" d="M 113.5,96.5 C 114.391,97.1098 115.391,97.4431 116.5,97.5C 117.371,107.806 117.704,118.14 117.5,128.5C 117.5,129.167 117.5,129.833 117.5,130.5C 118.43,134.4 118.763,138.4 118.5,142.5C 117.391,142.443 116.391,142.11 115.5,141.5C 114.546,126.572 113.88,111.572 113.5,96.5 Z"/></g>
<g><path style="opacity:0.872" fill="#acc2c5" d="M 63.5,97.5 C 64.5,97.8333 65.1667,98.5 65.5,99.5C 65.3531,104.214 65.6864,108.881 66.5,113.5C 65.2905,113.068 64.2905,112.401 63.5,111.5C 63.5,106.833 63.5,102.167 63.5,97.5 Z"/></g>
<g><path style="opacity:0.961" fill="#92aedd" d="M 106.5,97.5 C 106.631,110.506 106.964,123.506 107.5,136.5C 106.833,136.167 106.167,135.833 105.5,135.5C 105.325,123.161 104.992,110.828 104.5,98.5C 105.167,98.1667 105.833,97.8333 106.5,97.5 Z"/></g>
<g><path style="opacity:0.968" fill="#99abdc" d="M 106.5,97.5 C 107.167,97.5 107.833,97.5 108.5,97.5C 109.154,111.157 109.487,124.824 109.5,138.5C 108.5,138.167 107.833,137.5 107.5,136.5C 106.964,123.506 106.631,110.506 106.5,97.5 Z"/></g>
<g><path style="opacity:0.945" fill="#ada2db" d="M 116.5,97.5 C 118.332,98.2485 119.999,99.2485 121.5,100.5C 121.264,108.542 121.597,116.542 122.5,124.5C 121.415,126.587 119.749,127.92 117.5,128.5C 117.704,118.14 117.371,107.806 116.5,97.5 Z"/></g>
<g><path style="opacity:0.95" fill="#8cb0dd" d="M 104.5,98.5 C 104.992,110.828 105.325,123.161 105.5,135.5C 104.833,135.5 104.167,135.5 103.5,135.5C 103.695,123.81 103.361,112.144 102.5,100.5C 102.833,99.5 103.5,98.8333 104.5,98.5 Z"/></g>
<g><path style="opacity:0.871" fill="#dbafad" d="M 40.5,99.5 C 42.0075,101.181 43.0075,103.181 43.5,105.5C 43.5,110.833 43.5,116.167 43.5,121.5C 42.5,121.167 41.8333,120.5 41.5,119.5C 41.2871,112.826 40.9538,106.159 40.5,99.5 Z"/></g>
<g><path style="opacity:0.928" fill="#a5c3c7" d="M 65.5,99.5 C 66.1667,99.8333 66.8333,100.167 67.5,100.5C 67.5,104.833 67.5,109.167 67.5,113.5C 67.1667,113.5 66.8333,113.5 66.5,113.5C 65.6864,108.881 65.3531,104.214 65.5,99.5 Z"/></g>
<g><path style="opacity:0.869" fill="#a0c3ca" d="M 67.5,100.5 C 68.5,100.833 69.1667,101.5 69.5,102.5C 69.5,106.5 69.5,110.5 69.5,114.5C 68.5084,114.672 67.8417,114.338 67.5,113.5C 67.5,109.167 67.5,104.833 67.5,100.5 Z"/></g>
<g><path style="opacity:0.971" fill="#80b5df" d="M 101.5,100.5 C 101.434,112.181 101.767,123.848 102.5,135.5C 101.833,135.5 101.167,135.5 100.5,135.5C 99.8815,124.511 99.5482,113.511 99.5,102.5C 99.8333,101.5 100.5,100.833 101.5,100.5 Z"/></g>
<g><path style="opacity:0.984" fill="#86b2de" d="M 101.5,100.5 C 101.833,100.5 102.167,100.5 102.5,100.5C 103.361,112.144 103.695,123.81 103.5,135.5C 103.167,135.5 102.833,135.5 102.5,135.5C 101.767,123.848 101.434,112.181 101.5,100.5 Z"/></g>
<g><path style="opacity:0.929" fill="#ada3db" d="M 121.5,100.5 C 122.5,100.833 123.167,101.5 123.5,102.5C 124.014,108.822 124.347,115.155 124.5,121.5C 124.573,123.027 123.906,124.027 122.5,124.5C 121.597,116.542 121.264,108.542 121.5,100.5 Z"/></g>
<g><path style="opacity:0.874" fill="#99c3cc" d="M 69.5,102.5 C 70.4916,102.328 71.1583,102.662 71.5,103.5C 71.5,107.5 71.5,111.5 71.5,115.5C 70.5084,115.672 69.8417,115.338 69.5,114.5C 69.5,110.5 69.5,106.5 69.5,102.5 Z"/></g>
<g><path style="opacity:0.937" fill="#79b7df" d="M 99.5,102.5 C 99.5482,113.511 99.8815,124.511 100.5,135.5C 100.158,136.338 99.4916,136.672 98.5,136.5C 98.5468,126.484 98.2135,116.484 97.5,106.5C 97.6596,104.847 98.3263,103.514 99.5,102.5 Z"/></g>
<g><path style="opacity:0.819" fill="#aba5da" d="M 123.5,102.5 C 128.205,108.66 128.539,114.993 124.5,121.5C 124.347,115.155 124.014,108.822 123.5,102.5 Z"/></g>
<g><path style="opacity:0.889" fill="#92c3cf" d="M 71.5,103.5 C 72.4916,103.328 73.1583,103.662 73.5,104.5C 73.5,108.5 73.5,112.5 73.5,116.5C 72.8333,116.167 72.1667,115.833 71.5,115.5C 71.5,111.5 71.5,107.5 71.5,103.5 Z"/></g>
<g><path style="opacity:0.876" fill="#8cc4d1" d="M 73.5,104.5 C 73.8333,104.5 74.1667,104.5 74.5,104.5C 74.3946,108.548 74.7279,112.548 75.5,116.5C 74.8333,116.5 74.1667,116.5 73.5,116.5C 73.5,112.5 73.5,108.5 73.5,104.5 Z"/></g>
<g><path style="opacity:0.906" fill="#86c4d3" d="M 74.5,104.5 C 75.4916,104.328 76.1583,104.662 76.5,105.5C 76.5,109.167 76.5,112.833 76.5,116.5C 76.1667,116.5 75.8333,116.5 75.5,116.5C 74.7279,112.548 74.3946,108.548 74.5,104.5 Z"/></g>
<g><path style="opacity:0.912" fill="#d6b2af" d="M 43.5,105.5 C 44.9744,106.436 45.9744,107.77 46.5,109.5C 46.5,114.5 46.5,119.5 46.5,124.5C 45.1667,123.833 44.1667,122.833 43.5,121.5C 43.5,116.167 43.5,110.833 43.5,105.5 Z"/></g>
<g><path style="opacity:0.921" fill="#80c3d5" d="M 76.5,105.5 C 77.1667,105.5 77.8333,105.5 78.5,105.5C 78.5,109.5 78.5,113.5 78.5,117.5C 77.5084,117.672 76.8417,117.338 76.5,116.5C 76.5,112.833 76.5,109.167 76.5,105.5 Z"/></g>
<g><path style="opacity:0.865" fill="#79c4d7" d="M 78.5,105.5 C 79.4916,105.328 80.1583,105.662 80.5,106.5C 80.5,110.167 80.5,113.833 80.5,117.5C 79.8333,117.5 79.1667,117.5 78.5,117.5C 78.5,113.5 78.5,109.5 78.5,105.5 Z"/></g>
<g><path style="opacity:0.918" fill="#73c3d9" d="M 80.5,106.5 C 80.8333,106.5 81.1667,106.5 81.5,106.5C 82.1143,110.135 82.4476,113.802 82.5,117.5C 81.8333,117.5 81.1667,117.5 80.5,117.5C 80.5,113.833 80.5,110.167 80.5,106.5 Z"/></g>
<g><path style="opacity:0.93" fill="#6ec2db" d="M 81.5,106.5 C 82.5,106.5 83.5,106.5 84.5,106.5C 84.5,110.167 84.5,113.833 84.5,117.5C 83.8333,117.5 83.1667,117.5 82.5,117.5C 82.4476,113.802 82.1143,110.135 81.5,106.5 Z"/></g>
<g><path style="opacity:0.912" fill="#69c1dd" d="M 84.5,106.5 C 85.4916,106.328 86.1583,106.662 86.5,107.5C 86.5,110.167 86.5,112.833 86.5,115.5C 86.1667,116.5 85.5,117.167 84.5,117.5C 84.5,113.833 84.5,110.167 84.5,106.5 Z"/></g>
<g><path style="opacity:0.901" fill="#73b9e0" d="M 97.5,106.5 C 98.2135,116.484 98.5468,126.484 98.5,136.5C 97.8333,136.5 97.1667,136.5 96.5,136.5C 96.5,132.833 96.5,129.167 96.5,125.5C 97.0967,125.265 97.4301,124.765 97.5,124C 96.2765,120.606 95.6098,117.106 95.5,113.5C 95.3161,110.795 95.9827,108.462 97.5,106.5 Z"/></g>
<g><path style="opacity:0.71" fill="#66c0de" d="M 86.5,107.5 C 87.9931,108.312 88.6598,109.645 88.5,111.5C 88.6598,113.355 87.9931,114.688 86.5,115.5C 86.5,112.833 86.5,110.167 86.5,107.5 Z"/></g>
<g><path style="opacity:0.917" fill="#d1b6b3" d="M 46.5,109.5 C 47.8333,110.167 48.8333,111.167 49.5,112.5C 49.5,117.167 49.5,121.833 49.5,126.5C 47.9731,126.573 46.9731,125.906 46.5,124.5C 46.5,119.5 46.5,114.5 46.5,109.5 Z"/></g>
<g><path style="opacity:0.847" fill="#cdb8b5" d="M 49.5,112.5 C 50.1667,112.5 50.5,112.833 50.5,113.5C 50.2743,118.562 50.6076,123.562 51.5,128.5C 50.5,128.167 49.8333,127.5 49.5,126.5C 49.5,121.833 49.5,117.167 49.5,112.5 Z"/></g>
<g><path style="opacity:0.923" fill="#c9bab6" d="M 50.5,113.5 C 51.8333,114.167 52.8333,115.167 53.5,116.5C 53.5,120.833 53.5,125.167 53.5,129.5C 52.8333,129.167 52.1667,128.833 51.5,128.5C 50.6076,123.562 50.2743,118.562 50.5,113.5 Z"/></g>
<g><path style="opacity:0.904" fill="#c4bcb9" d="M 53.5,116.5 C 54.1667,116.833 54.8333,117.167 55.5,117.5C 55.8333,122.167 56.1667,126.833 56.5,131.5C 55.2905,131.068 54.2905,130.401 53.5,129.5C 53.5,125.167 53.5,120.833 53.5,116.5 Z"/></g>
<g><path style="opacity:0.908" fill="#bebebc" d="M 55.5,117.5 C 56.5,118.167 57.5,118.833 58.5,119.5C 58.5865,123.857 58.9198,128.19 59.5,132.5C 58.391,132.443 57.391,132.11 56.5,131.5C 56.1667,126.833 55.8333,122.167 55.5,117.5 Z"/></g>
<g><path style="opacity:0.885" fill="#b8c0bf" d="M 58.5,119.5 C 59.5,120.167 60.5,120.833 61.5,121.5C 61.3718,125.881 61.7051,130.215 62.5,134.5C 61.2905,134.068 60.2905,133.401 59.5,132.5C 58.9198,128.19 58.5865,123.857 58.5,119.5 Z"/></g>
<g><path style="opacity:0.905" fill="#b2c1c2" d="M 61.5,121.5 C 63.0269,121.427 64.0269,122.094 64.5,123.5C 64.5,127.5 64.5,131.5 64.5,135.5C 63.8333,135.167 63.1667,134.833 62.5,134.5C 61.7051,130.215 61.3718,125.881 61.5,121.5 Z"/></g>
<g><path style="opacity:0.912" fill="#abc3c5" d="M 64.5,123.5 C 65.1667,123.5 65.8333,123.5 66.5,123.5C 66.5,127.5 66.5,131.5 66.5,135.5C 65.8333,135.5 65.1667,135.5 64.5,135.5C 64.5,131.5 64.5,127.5 64.5,123.5 Z"/></g>
<g><path style="opacity:0.905" fill="#a5c3c7" d="M 66.5,123.5 C 67.1667,123.833 67.8333,124.167 68.5,124.5C 68.5,128.5 68.5,132.5 68.5,136.5C 67.8333,136.167 67.1667,135.833 66.5,135.5C 66.5,131.5 66.5,127.5 66.5,123.5 Z"/></g>
<g><path style="opacity:0.882" fill="#9fc3ca" d="M 68.5,124.5 C 69.4916,124.328 70.1583,124.662 70.5,125.5C 70.5,129.167 70.5,132.833 70.5,136.5C 69.8333,136.5 69.1667,136.5 68.5,136.5C 68.5,132.5 68.5,128.5 68.5,124.5 Z"/></g>
<g><path style="opacity:0.882" fill="#98c3cd" d="M 70.5,125.5 C 71.1667,125.5 71.8333,125.5 72.5,125.5C 72.5,129.5 72.5,133.5 72.5,137.5C 71.5084,137.672 70.8417,137.338 70.5,136.5C 70.5,132.833 70.5,129.167 70.5,125.5 Z"/></g>
<g><path style="opacity:0.876" fill="#92c4cf" d="M 72.5,125.5 C 72.8333,125.5 73.1667,125.5 73.5,125.5C 73.6458,129.519 73.9791,133.519 74.5,137.5C 73.8333,137.5 73.1667,137.5 72.5,137.5C 72.5,133.5 72.5,129.5 72.5,125.5 Z"/></g>
<g><path style="opacity:0.879" fill="#8cc3d1" d="M 73.5,125.5 C 74.4916,125.328 75.1583,125.662 75.5,126.5C 75.5,130.167 75.5,133.833 75.5,137.5C 75.1667,137.5 74.8333,137.5 74.5,137.5C 73.9791,133.519 73.6458,129.519 73.5,125.5 Z"/></g>
<g><path style="opacity:0.881" fill="#67bee1" d="M 94.5,125.5 C 94.5,129.5 94.5,133.5 94.5,137.5C 93.5,137.5 92.5,137.5 91.5,137.5C 91.5,133.833 91.5,130.167 91.5,126.5C 92.209,125.596 93.209,125.263 94.5,125.5 Z"/></g>
<g><path style="opacity:0.833" fill="#6cbbe1" d="M 94.5,125.5 C 95.1667,125.5 95.8333,125.5 96.5,125.5C 96.5,129.167 96.5,132.833 96.5,136.5C 96.1583,137.338 95.4916,137.672 94.5,137.5C 94.5,133.5 94.5,129.5 94.5,125.5 Z"/></g>
<g><path style="opacity:0.95" fill="#86c4d3" d="M 75.5,126.5 C 76.1667,126.5 76.8333,126.5 77.5,126.5C 77.5,130.167 77.5,133.833 77.5,137.5C 76.8333,137.5 76.1667,137.5 75.5,137.5C 75.5,133.833 75.5,130.167 75.5,126.5 Z"/></g>
<g><path style="opacity:0.9" fill="#7fc3d5" d="M 77.5,126.5 C 78.1667,126.5 78.8333,126.5 79.5,126.5C 79.5,130.5 79.5,134.5 79.5,138.5C 78.8333,138.167 78.1667,137.833 77.5,137.5C 77.5,133.833 77.5,130.167 77.5,126.5 Z"/></g>
<g><path style="opacity:0.871" fill="#78c3d8" d="M 79.5,126.5 C 79.8333,126.5 80.1667,126.5 80.5,126.5C 81.1621,130.466 81.4955,134.466 81.5,138.5C 80.8333,138.5 80.1667,138.5 79.5,138.5C 79.5,134.5 79.5,130.5 79.5,126.5 Z"/></g>
<g><path style="opacity:0.833" fill="#73c3da" d="M 80.5,126.5 C 81.1667,126.5 81.8333,126.5 82.5,126.5C 83.1621,130.466 83.4955,134.466 83.5,138.5C 82.8333,138.5 82.1667,138.5 81.5,138.5C 81.4955,134.466 81.1621,130.466 80.5,126.5 Z"/></g>
<g><path style="opacity:0.869" fill="#6dc2dc" d="M 82.5,126.5 C 83.1667,126.5 83.8333,126.5 84.5,126.5C 85.4299,130.4 85.7633,134.4 85.5,138.5C 84.8333,138.5 84.1667,138.5 83.5,138.5C 83.4955,134.466 83.1621,130.466 82.5,126.5 Z"/></g>
<g><path style="opacity:0.865" fill="#69c1dd" d="M 84.5,126.5 C 85.1667,126.5 85.8333,126.5 86.5,126.5C 87.0209,130.481 87.3542,134.481 87.5,138.5C 86.8333,138.5 86.1667,138.5 85.5,138.5C 85.7633,134.4 85.4299,130.4 84.5,126.5 Z"/></g>
<g><path style="opacity:0.924" fill="#66c0df" d="M 86.5,126.5 C 88.1667,126.5 89.8333,126.5 91.5,126.5C 91.5,130.167 91.5,133.833 91.5,137.5C 90.0413,137.433 88.7079,137.766 87.5,138.5C 87.3542,134.481 87.0209,130.481 86.5,126.5 Z"/></g>
<g><path style="opacity:0.888" fill="#ada2db" d="M 117.5,130.5 C 119.553,130.402 121.22,131.069 122.5,132.5C 122.5,136.167 122.5,139.833 122.5,143.5C 120.901,143.768 119.568,143.434 118.5,142.5C 118.763,138.4 118.43,134.4 117.5,130.5 Z"/></g>
<g><path style="opacity:0.893" fill="#ada3db" d="M 122.5,132.5 C 123.167,132.5 123.833,132.5 124.5,132.5C 124.694,136.755 125.027,140.755 125.5,144.5C 124.209,144.737 123.209,144.404 122.5,143.5C 122.5,139.833 122.5,136.167 122.5,132.5 Z"/></g>
<g><path style="opacity:0.894" fill="#aaa6da" d="M 124.5,132.5 C 126.117,133.038 127.784,133.371 129.5,133.5C 129.5,137.5 129.5,141.5 129.5,145.5C 128.041,145.567 126.708,145.234 125.5,144.5C 125.027,140.755 124.694,136.755 124.5,132.5 Z"/></g>
<g><path style="opacity:0.899" fill="#a5aada" d="M 129.5,133.5 C 130.609,133.557 131.609,133.89 132.5,134.5C 132.5,138.167 132.5,141.833 132.5,145.5C 131.5,145.5 130.5,145.5 129.5,145.5C 129.5,141.5 129.5,137.5 129.5,133.5 Z"/></g>
<g><path style="opacity:0.934" fill="#a1adda" d="M 132.5,134.5 C 132.833,134.5 133.167,134.5 133.5,134.5C 133.244,138.269 133.577,141.936 134.5,145.5C 133.833,145.5 133.167,145.5 132.5,145.5C 132.5,141.833 132.5,138.167 132.5,134.5 Z"/></g>
<g><path style="opacity:0.969" fill="#9eafda" d="M 133.5,134.5 C 134.167,134.5 134.833,134.5 135.5,134.5C 135.5,138.167 135.5,141.833 135.5,145.5C 135.167,145.5 134.833,145.5 134.5,145.5C 133.577,141.936 133.244,138.269 133.5,134.5 Z"/></g>
<g><path style="opacity:0.951" fill="#99b3da" d="M 135.5,134.5 C 136.5,134.5 137.5,134.5 138.5,134.5C 138.5,138.167 138.5,141.833 138.5,145.5C 137.5,145.5 136.5,145.5 135.5,145.5C 135.5,141.833 135.5,138.167 135.5,134.5 Z"/></g>
<g><path style="opacity:0.933" fill="#92b7d9" d="M 138.5,134.5 C 139.5,134.5 140.5,134.5 141.5,134.5C 141.5,138.167 141.5,141.833 141.5,145.5C 140.5,145.5 139.5,145.5 138.5,145.5C 138.5,141.833 138.5,138.167 138.5,134.5 Z"/></g>
<g><path style="opacity:0.86" fill="#8dbad9" d="M 141.5,134.5 C 142.5,134.833 143.167,135.5 143.5,136.5C 143.5,138.833 143.5,141.167 143.5,143.5C 143.167,144.5 142.5,145.167 141.5,145.5C 141.5,141.833 141.5,138.167 141.5,134.5 Z"/></g>
<g><path style="opacity:0.175" fill="#88bcd9" d="M 143.5,136.5 C 146.034,138.916 146.034,141.25 143.5,143.5C 143.5,141.167 143.5,138.833 143.5,136.5 Z"/></g>
</svg>
